<svg width="800" height="800" viewBox="0 0 800 800" fill="none" xmlns="http://www.w3.org/2000/svg">
<g clip-path="url(#clip0_1026_1785)">
<path d="M634.392 525.128C569.057 556.425 512.034 571.852 470.758 580.073C442.543 585.696 432.629 585.569 426.49 585.569C343.405 585.569 276.03 529.61 276.03 460.568C276.03 391.526 343.386 335.567 426.49 335.567C465.306 335.567 500.69 347.795 527.381 367.847L634.392 316.513C584.728 267.096 510.032 235.655 426.49 235.655C276.984 235.671 155.77 336.375 155.77 460.584C155.77 584.793 276.984 685.497 426.49 685.497C510.032 685.497 584.728 654.041 634.392 604.639V525.128Z" fill="white"/>
<path d="M426.491 695C270.903 695 144.332 589.845 144.332 460.584C144.332 331.322 270.903 226.168 426.491 226.168C510.377 226.168 589.343 256.88 643.182 310.447C645.355 312.601 646.251 315.436 645.66 318.192C645.069 320.948 643.049 323.356 640.113 324.765L533.102 376.099C528.812 378.158 523.398 377.683 519.699 374.911C494.114 355.683 460.999 345.087 426.491 345.087C349.832 345.087 287.471 396.896 287.471 460.584C287.471 524.272 349.832 576.081 426.491 576.081H426.892C432.44 576.05 441.8 576.081 468.091 570.839C522.616 559.973 576.646 541.822 628.674 516.891C632.22 515.197 636.567 515.197 640.113 516.891C643.659 518.586 645.832 521.722 645.832 525.128V604.639C645.832 606.872 644.898 609.026 643.182 610.737C589.362 664.288 510.377 695.016 426.491 695.016V695ZM426.491 245.175C283.524 245.175 167.21 341.808 167.21 460.584C167.21 579.36 283.524 675.993 426.491 675.993C502.198 675.993 573.576 648.75 622.954 601.139V541.299C574.32 563.078 524.103 579.202 473.429 589.307C444.489 595.072 433.412 595.041 426.873 595.072H426.491C337.23 595.072 264.593 534.742 264.593 460.568C264.593 386.394 337.211 326.064 426.491 326.064C463.897 326.064 499.853 336.739 528.679 356.253L616.587 314.09C567.533 270.137 499.014 245.159 426.491 245.159V245.175Z" fill="black"/>
<path d="M634.392 255.945C616.242 238.284 574.452 202.536 506.6 185.097C481.282 178.588 454.382 175.087 426.49 175.087C276.984 175.087 155.77 275.791 155.77 400C155.77 524.209 276.984 624.913 426.49 624.913C510.032 624.913 584.728 593.457 634.392 544.055V485.483C570.83 500.308 515.504 511.348 470.758 519.505C444.373 524.32 436.976 525.001 426.49 525.001C343.405 525.001 276.03 469.042 276.03 400C276.03 330.958 343.386 274.999 426.49 274.999C465.306 274.999 500.69 287.227 527.381 307.279L634.392 255.945Z" fill="white"/>
<path d="M426.491 634.416C270.903 634.416 144.332 529.261 144.332 400C144.332 270.738 270.903 165.584 426.491 165.584C454.955 165.584 483.057 169.1 509.995 176.022C560.917 189.105 606.94 214.621 643.106 249.784C645.317 251.938 646.252 254.789 645.68 257.561C645.108 260.332 643.068 262.772 640.132 264.181L533.121 315.515C528.831 317.574 523.417 317.099 519.718 314.327C494.133 295.099 461.018 284.503 426.51 284.503C349.851 284.503 287.49 336.312 287.49 400C287.49 463.688 349.851 515.497 426.51 515.497C435.662 515.497 442.01 515.022 468.32 510.223C522.33 500.371 577.18 488.967 631.324 476.328C634.755 475.52 638.473 476.106 641.333 477.896C644.193 479.686 645.87 482.489 645.87 485.467V544.039C645.87 546.272 644.936 548.427 643.22 550.137C589.4 603.689 510.415 634.416 426.529 634.416H426.491ZM426.491 184.591C283.524 184.591 167.21 281.224 167.21 400C167.21 518.776 283.524 615.409 426.491 615.409C502.198 615.409 573.576 588.166 622.954 540.555V497.964C573.138 509.368 522.826 519.711 473.219 528.77C446.395 533.665 438.026 534.488 426.491 534.488C337.23 534.488 264.593 474.158 264.593 399.984C264.593 325.81 337.211 265.48 426.491 265.48C463.897 265.48 499.853 276.155 528.679 295.669L616.453 253.569C592.393 232.392 555.122 207.51 503.227 194.173C478.481 187.806 452.667 184.591 426.491 184.591Z" fill="black"/>
<path d="M527.381 432.137C500.69 452.189 465.306 464.417 426.49 464.417C343.405 464.417 276.03 408.458 276.03 339.416C276.03 270.374 343.386 214.415 426.49 214.415C465.306 214.415 500.69 226.643 527.381 246.695L634.392 195.361C584.728 145.959 510.032 114.503 426.49 114.503C276.984 114.503 155.77 215.207 155.77 339.416C155.77 463.625 276.984 564.329 426.49 564.329C510.032 564.329 584.728 532.873 634.392 483.471L527.381 432.137Z" fill="white"/>
<path d="M426.491 573.832C270.903 573.832 144.332 468.678 144.332 339.416C144.332 210.155 270.903 105 426.491 105C510.377 105 589.343 135.712 643.182 189.279C645.356 191.433 646.252 194.268 645.661 197.024C645.07 199.78 643.049 202.188 640.113 203.597L533.102 254.931C528.812 256.99 523.398 256.515 519.699 253.743C494.114 234.515 460.999 223.919 426.491 223.919C349.832 223.919 287.471 275.728 287.471 339.416C287.471 403.104 349.832 454.914 426.491 454.914C461.018 454.914 494.114 444.317 519.699 425.089C523.379 422.317 528.793 421.842 533.102 423.901L640.113 475.235C643.03 476.645 645.07 479.036 645.661 481.808C646.252 484.564 645.336 487.415 643.182 489.553C589.362 543.105 510.377 573.832 426.491 573.832ZM426.491 124.007C283.524 124.007 167.21 220.64 167.21 339.416C167.21 458.192 283.524 554.825 426.491 554.825C499.014 554.825 567.533 529.847 616.587 485.894L528.679 443.731C499.853 463.245 463.897 473.92 426.491 473.92C337.23 473.92 264.593 413.59 264.593 339.416C264.593 265.242 337.211 204.912 426.491 204.912C463.897 204.912 499.853 215.587 528.679 235.101L616.587 192.938C567.533 148.985 499.014 124.007 426.491 124.007Z" fill="black"/>
<path d="M527.383 368.1V307.517V246.933L634.394 195.615V256.198V316.782L527.383 368.1Z" fill="white"/>
<path d="M527.384 377.604C525.401 377.604 523.438 377.176 521.665 376.337C518.119 374.642 515.945 371.506 515.945 368.1V246.933C515.945 243.543 518.119 240.407 521.665 238.696L628.676 187.362C632.222 185.668 636.568 185.668 640.114 187.362C643.661 189.057 645.834 192.193 645.834 195.599V316.766C645.834 320.156 643.661 323.292 640.114 325.003L533.104 376.337C531.331 377.192 529.367 377.604 527.384 377.604ZM538.823 252.413V351.628L622.956 311.27V212.055L538.823 252.413Z" fill="black"/>
<path d="M155.771 470.087C149.46 470.087 144.332 465.827 144.332 460.584V339.416C144.332 334.173 149.46 329.913 155.771 329.913C162.081 329.913 167.21 334.173 167.21 339.416V460.584C167.21 465.827 162.081 470.087 155.771 470.087Z" fill="black"/>
</g>
<defs>
<clipPath id="clip0_1026_1785">
<rect width="501.5" height="590" fill="white" transform="translate(144.332 105)"/>
</clipPath>
</defs>
</svg>
